<svg height="504pt" viewBox="-16 0 504 504" width="504pt" xmlns="http://www.w3.org/2000/svg"><path d="m440 356.015625h-48c-6.617188 0-12-5.382813-12-12s5.382812-12 12-12h15.921875c11.070313 0 20.078125-9.007813 20.078125-20.078125v-23.921875c0-2.207031-1.792969-4-4-4s-4 1.792969-4 4v23.921875c0 6.65625-5.425781 12.078125-12.078125 12.078125h-15.921875c-11.03125 0-20 8.96875-20 20s8.96875 20 20 20h48c6.617188 0 12 5.382813 12 12s-5.382812 12-12 12h-23.921875c-11.03125 0-20 8.96875-20 20 0 2.207031 1.792969 4 4 4 2.210937 0 4-1.792969 4-4 0-6.726563 5.273437-12 12-12h23.921875c11.03125 0 20-8.96875 20-20s-8.96875-20-20-20zm0 0" fill="#d3374e"/><path d="m191.921875 369.59375 16.078125-1.515625h56l11.511719 4.082031c17.921875-9.769531 36.328125-25.128906 52.488281-44.160156v32c0 16 66 44.800781 96 56 32 11.921875 48 24 48 56v32h-472s0-16 0-32c0-32 16-44.078125 48-56 30-11.199219 96-40 96-56v-31.921875c14.800781 17.433594 31.511719 31.675781 47.921875 41.515625zm0 0" fill="#da4453"/><path d="m236 56c77.28125 0 140 60.40625 140 152 0 91.609375-86.71875 176-140 176s-140-84.390625-140-176c0-91.59375 62.640625-152 140-152zm0 0" fill="#ed5565"/><path d="m208 132.367188c0 24.300781-19.699219 44-44 44s-44-19.699219-44-44c0-24.300782 19.699219-44 44-44s44 19.699218 44 44zm0 0" fill="#da4453"/><path d="m176 106.71875c-1.839844-1.046875-21.039062-5.359375-44.71875-21.839844-11.679688-8.160156-24.488281-19.199218-36.800781-34.390625-10.878907-13.359375-21.441407-30-30.480469-50.488281 0 0-11.679688 29.199219 5.28125 69.199219 6.230469 14.953125 16.558594 31.359375 32.949219 48.3125 4.96875 5.207031 10.488281 10.488281 16.730469 15.769531 3.679687 3.109375 7.519531 6.230469 11.679687 9.359375 5.039063 3.839844 10.488281 7.75 16.320313 11.589844.960937.640625 2 1.28125 3.039062 2 .160156.160156.398438.25.640625.410156 4 2.160156 8.558594 3.359375 13.359375 3.359375 15.441406 0 28-12.558594 28-28 0-11.199219-6.558594-20.800781-16-25.28125zm0 0" fill="#ffce54"/><path d="m260 368.078125c2.199219 0 2.96875 1.480469 1.703125 3.273437l-23.40625 33.457032c-1.265625 1.800781-3.328125 1.800781-4.59375 0l-23.40625-33.457032c-1.265625-1.800781-.496094-3.273437 1.703125-3.273437zm0 0" fill="#656d78"/><path d="m94.488281 50.488281c-.054687-.0625-.105469-.136719-.152343-.191406-4.414063 6.941406-12.632813 15.320313-26.425782 15.382813.464844 1.175781.859375 2.335937 1.371094 3.527343.589844 1.425781 1.253906 2.871094 1.925781 4.328125 14.058594-1.175781 23.105469-9.503906 28.472657-17.101562-1.734376-1.96875-3.480469-3.824219-5.191407-5.945313zm0 0" fill="#f6bb42"/><path d="m102.398438 117.679688c1.832031 1.914062 3.808593 3.832031 5.792968 5.769531 10.753906-6.175781 24.609375-17.632813 26.960938-36.058594-1.296875-.839844-2.542969-1.589844-3.863282-2.511719-1.226562-.847656-2.503906-1.878906-3.753906-2.800781-.0625 19.121094-14.902344 30.25-25.136718 35.601563zm0 0" fill="#f6bb42"/><path d="m352 132.367188c0 24.300781-19.699219 44-44 44s-44-19.699219-44-44c0-24.300782 19.699219-44 44-44s44 19.699218 44 44zm0 0" fill="#da4453"/><path d="m296 106.71875c1.839844-1.046875 21.039062-5.359375 44.71875-21.839844 11.679688-8.160156 24.488281-19.199218 36.800781-34.390625 10.878907-13.359375 21.441407-30 30.480469-50.488281 0 0 11.679688 29.199219-5.28125 69.199219-6.230469 14.953125-16.558594 31.359375-32.949219 48.3125-4.96875 5.207031-10.488281 10.488281-16.730469 15.769531-3.679687 3.109375-7.519531 6.230469-11.679687 9.359375-5.039063 3.839844-10.488281 7.75-16.320313 11.589844-.960937.640625-2 1.28125-3.039062 2-.160156.160156-.398438.25-.640625.410156-4 2.160156-8.558594 3.359375-13.359375 3.359375-15.441406 0-28-12.558594-28-28 0-11.199219 6.558594-20.800781 16-25.28125zm0 0" fill="#ffce54"/><path d="m377.511719 50.488281c.054687-.0625.105469-.136719.152343-.191406 4.414063 6.941406 12.632813 15.320313 26.425782 15.382813-.464844 1.175781-.859375 2.335937-1.371094 3.527343-.589844 1.425781-1.253906 2.871094-1.925781 4.328125-14.058594-1.175781-23.105469-9.503906-28.472657-17.101562 1.734376-1.96875 3.480469-3.824219 5.191407-5.945313zm0 0" fill="#f6bb42"/><path d="m369.601562 117.679688c-1.832031 1.914062-3.808593 3.832031-5.792968 5.769531-10.753906-6.175781-24.609375-17.632813-26.960938-36.058594 1.296875-.839844 2.542969-1.589844 3.863282-2.511719 1.226562-.847656 2.503906-1.878906 3.753906-2.800781.0625 19.121094 14.902344 30.25 25.136718 35.601563zm0 0" fill="#f6bb42"/><path d="m443.574219 286.222656-16-32c-1.359375-2.703125-5.796875-2.703125-7.160157 0l-16 32c-.613281 1.242188-.550781 2.714844.171876 3.890625.734374 1.175781 2.023437 1.894531 3.40625 1.894531h32c1.382812 0 2.671874-.71875 3.40625-1.894531.738281-1.175781.792968-2.640625.175781-3.890625zm0 0" fill="#da4453"/></svg>